<?xml version="1.0" encoding="UTF-8" standalone="no"?>
<!-- Created with Inkscape (http://www.inkscape.org/) -->

<svg
   xmlns:dc="http://purl.org/dc/elements/1.1/"
   xmlns:cc="http://creativecommons.org/ns#"
   xmlns:rdf="http://www.w3.org/1999/02/22-rdf-syntax-ns#"
   xmlns:svg="http://www.w3.org/2000/svg"
   xmlns="http://www.w3.org/2000/svg"
   xmlns:sodipodi="http://sodipodi.sourceforge.net/DTD/sodipodi-0.dtd"
   xmlns:inkscape="http://www.inkscape.org/namespaces/inkscape"
   width="405.98221"
   height="439.76205"
   viewBox="0 0 107.41612 116.35371"
   version="1.1"
   id="svg8"
   inkscape:version="0.92.1 15371"
   sodipodi:docname="Cosmetic and beauty icons.svg"
   inkscape:export-filename="/home/spaventapasseri/Scrivania/make up.png"
   inkscape:export-xdpi="90"
   inkscape:export-ydpi="90">
  <defs
     id="defs2">
    <marker
       inkscape:stockid="Arrow1Lstart"
       orient="auto"
       refY="0"
       refX="0"
       id="marker3168"
       style="overflow:visible"
       inkscape:isstock="true">
      <path
         id="path3166"
         d="M 0,0 5,-5 -12.5,0 5,5 Z"
         style="fill:#ff4141;fill-opacity:1;fill-rule:evenodd;stroke:#2d2d2d;stroke-width:1.00000003pt;stroke-opacity:1"
         transform="matrix(0.8,0,0,0.8,10,0)"
         inkscape:connector-curvature="0" />
    </marker>
    <marker
       inkscape:stockid="Arrow1Lstart"
       orient="auto"
       refY="0"
       refX="0"
       id="Arrow1Lstart"
       style="overflow:visible"
       inkscape:isstock="true">
      <path
         id="path2890"
         d="M 0,0 5,-5 -12.5,0 5,5 Z"
         style="fill:#ff4141;fill-opacity:1;fill-rule:evenodd;stroke:none;stroke-width:1.00000003pt;stroke-opacity:1"
         transform="matrix(0.8,0,0,0.8,10,0)"
         inkscape:connector-curvature="0" />
    </marker>
  </defs>
  <sodipodi:namedview
     id="base"
     pagecolor="#000000"
     bordercolor="#666666"
     borderopacity="1.0"
     inkscape:pageopacity="1"
     inkscape:pageshadow="2"
     inkscape:zoom="1.3007034"
     inkscape:cx="202.9911"
     inkscape:cy="219.88103"
     inkscape:document-units="px"
     inkscape:current-layer="layer1"
     showgrid="false"
     units="px"
     inkscape:snap-global="false"
     inkscape:measure-start="0,0"
     inkscape:measure-end="0,0"
     inkscape:window-width="1301"
     inkscape:window-height="744"
     inkscape:window-x="65"
     inkscape:window-y="24"
     inkscape:window-maximized="1"
     showguides="false"
     fit-margin-top="0"
     fit-margin-left="0"
     fit-margin-right="0"
     fit-margin-bottom="0" />
  <metadata
     id="metadata5">
    <rdf:RDF>
      <cc:Work
         rdf:about="">
        <dc:format>image/svg+xml</dc:format>
        <dc:type
           rdf:resource="http://purl.org/dc/dcmitype/StillImage" />
        <dc:title></dc:title>
      </cc:Work>
    </rdf:RDF>
  </metadata>
  <g
     inkscape:label="Layer 1"
     inkscape:groupmode="layer"
     id="layer1"
     transform="translate(44.801857,-144.40048)"
     sodipodi:insensitive="true">
    <rect
       style="opacity:1;fill:#f8e7d5;fill-opacity:1;stroke:#ffffff;stroke-width:0.52780175;stroke-miterlimit:4;stroke-dasharray:none;stroke-dashoffset:0;stroke-opacity:1"
       id="rect1874"
       width="107.41612"
       height="116.35371"
       x="-44.801857"
       y="144.40048"
       rx="1.6351243e-14"
       ry="0.38394037" />
    <g
       id="g1825"
       transform="translate(-8.3701622,-6.3680891)">
      <path
         id="rect21"
         d="m -22.257745,217.64252 h 7.993007 c 0.459213,0 0.828904,1.06946 0.828904,2.39789 v 5.56552 c 0,1.32843 -0.369691,2.39789 -0.828904,2.39789 h -7.993007 c -0.459214,0 -0.828905,-1.06946 -0.828905,-2.39789 v -5.56552 c 0,-1.32843 0.369691,-2.39789 0.828905,-2.39789 z"
         style="opacity:1;fill:#0e232e;fill-opacity:1;stroke:#2d2d2d;stroke-width:0.26458332;stroke-miterlimit:4;stroke-dasharray:none;stroke-dashoffset:0;stroke-opacity:1"
         inkscape:connector-curvature="0" />
      <path
         id="rect830"
         d="m -22.139331,208.87985 h 7.756177 v 10.47972 h -7.756177 z"
         style="opacity:1;fill:#f50057;fill-opacity:1;stroke:#2d2d2d;stroke-width:0;stroke-miterlimit:4;stroke-dasharray:none;stroke-dashoffset:0;stroke-opacity:1"
         inkscape:connector-curvature="0" />
      <path
         id="rect23"
         d="m -23.08665,216.28076 h 9.650816 v 3.07879 h -9.650816 z"
         style="opacity:1;fill:#cccccc;fill-opacity:1;stroke:#2d2d2d;stroke-width:0.26458332;stroke-miterlimit:4;stroke-dasharray:none;stroke-dashoffset:0;stroke-opacity:1"
         inkscape:connector-curvature="0" />
      <path
         sodipodi:nodetypes="cccccc"
         inkscape:connector-curvature="0"
         id="path832"
         d="m -20.599937,208.93902 -0.236829,-4.91421 c 0.876211,-1.70396 2.148801,-2.74729 3.49324,-3.67087 l 1.480186,3.37483 v 5.21025 z"
         style="fill:#ff4081;fill-opacity:1;stroke:none;stroke-width:0.26458332;stroke-linecap:butt;stroke-linejoin:miter;stroke-miterlimit:4;stroke-dasharray:none;stroke-opacity:1" />
      <path
         sodipodi:nodetypes="ccccccccc"
         inkscape:connector-curvature="0"
         id="rect834"
         d="m -16.771859,201.51075 0.91202,1.94482 0.20911,23.53231 v 0.13709 h -2.131469 v -0.13709 l -0.05181,-24.68553 c 0.103907,-0.28033 -0.01012,-1.57069 0.486489,-1.91618 z"
         style="opacity:0.40400002;fill:#ffffff;fill-opacity:1;stroke:none;stroke-width:0.26458332;stroke-miterlimit:4;stroke-dasharray:none;stroke-dashoffset:0;stroke-opacity:1" />
      <path
         sodipodi:nodetypes="ccccc"
         inkscape:connector-curvature="0"
         id="rect840"
         d="m -22.892682,227.02499 9.266607,0.0164 c 0.03067,0.13681 -0.35545,1.1388 -0.577273,1.02596 h -8.163868 c -0.266489,-0.21241 -0.468302,-0.57945 -0.525466,-1.0424 z"
         style="opacity:1;fill:#000000;fill-opacity:1;stroke:#2d2d2d;stroke-width:0.26458332;stroke-miterlimit:4;stroke-dasharray:none;stroke-dashoffset:0;stroke-opacity:1" />
    </g>
    <g
       id="g1492"
       transform="translate(-26.779422,-44.839954)">
      <rect
         ry="3.1421514"
         rx="2.5163288"
         y="215.35289"
         x="-5.8023314"
         height="14.268997"
         width="11.900699"
         id="rect862"
         style="opacity:1;fill:#dceeee;fill-opacity:1;stroke:#2d2d2d;stroke-width:0.26458332;stroke-miterlimit:4;stroke-dasharray:none;stroke-dashoffset:0;stroke-opacity:1" />
      <rect
         ry="0.1120363"
         rx="1.0658132e-14"
         y="213.39906"
         x="-0.47366035"
         height="8.1114225"
         width="1.1249417"
         id="rect896"
         style="opacity:1;fill:#dc0000;fill-opacity:1;stroke:none;stroke-width:0;stroke-miterlimit:4;stroke-dasharray:none;stroke-dashoffset:0;stroke-opacity:1" />
      <path
         inkscape:connector-curvature="0"
         id="path894"
         d="m -3.7422805,229.48959 c -0.9687561,-0.20393 -1.7193689,-1.10107 -1.8965388,-2.26675 -0.02849,-0.18745 -0.033105,-0.60946 -0.033105,-3.0278 v -2.81 c 1.7875435,-0.24707 1.4482179,1.28139 5.84346554,0 3.50472046,-0.17299 3.90462296,-0.001 5.84346566,0 l -0.0072,2.90485 c -0.0071,2.88263 -0.00752,2.90633 -0.053383,3.09952 -0.1612513,0.67954 -0.4177609,1.15481 -0.8360234,1.54902 -0.2746493,0.25886 -0.5751364,0.42812 -0.9512167,0.53581 -0.1183399,0.0339 -0.3650772,0.0363 -3.95316222,0.0394 -3.11306748,0.003 -3.85107538,-0.002 -3.95630578,-0.024 z"
         style="opacity:1;fill:#dc0000;fill-opacity:1;stroke:none;stroke-width:0;stroke-miterlimit:4;stroke-dasharray:none;stroke-dashoffset:0;stroke-opacity:1"
         sodipodi:nodetypes="ccscccccccccc" />
      <path
         sodipodi:nodetypes="ccccccc"
         inkscape:connector-curvature="0"
         id="rect900"
         d="m 1.7855099,221.3558 h 3.026103 1.0178711 c 0.2716877,0.55994 0.3059342,4.18572 0.044805,6.32483 -0.4113542,1.98231 -2.6919919,1.88008 -4.0498799,1.58688 l -0.03891,-7.75868 z"
         style="opacity:0.41199999;fill:#ffffff;fill-opacity:1;stroke:none;stroke-width:0;stroke-miterlimit:4;stroke-dasharray:none;stroke-dashoffset:0;stroke-opacity:1" />
      <rect
         style="opacity:1;fill:#b50000;fill-opacity:1;stroke:none;stroke-width:0;stroke-miterlimit:4;stroke-dasharray:none;stroke-dashoffset:0;stroke-opacity:1"
         id="rect903"
         width="1.1249417"
         height="4.2250681"
         x="-0.47366035"
         y="221.38725"
         rx="1.0658132e-14"
         ry="0.058357332" />
      <rect
         ry="0.15028314"
         rx="1.0658132e-14"
         y="202.86017"
         x="-2.9011657"
         height="10.219246"
         width="6.216783"
         id="rect878"
         style="opacity:1;fill:#000000;fill-opacity:1;stroke:#050505;stroke-width:0.26458332;stroke-miterlimit:4;stroke-dasharray:none;stroke-dashoffset:0;stroke-opacity:1" />
      <rect
         style="opacity:1;fill:#daaf2c;fill-opacity:1;stroke:#050505;stroke-width:0.26458332;stroke-miterlimit:4;stroke-dasharray:none;stroke-dashoffset:0;stroke-opacity:1"
         id="rect880"
         width="6.216783"
         height="2.284302"
         x="-2.9011657"
         y="213.07942"
         rx="1.0658132e-14"
         ry="0.033592701" />
      <rect
         ry="0.069130242"
         rx="1.0658132e-14"
         y="202.86017"
         x="1.6578085"
         height="12.443436"
         width="1.2433567"
         id="rect898"
         style="opacity:0.41199999;fill:#ffffff;fill-opacity:1;stroke:none;stroke-width:0.26458332;stroke-miterlimit:4;stroke-dasharray:none;stroke-dashoffset:0;stroke-opacity:1" />
    </g>
    <g
       id="g1872"
       transform="translate(-15.234977,-8.4794101)">
      <rect
         style="opacity:1;fill:#dceeee;fill-opacity:1;stroke:#2d2d2d;stroke-width:0.34182143;stroke-miterlimit:4;stroke-dasharray:none;stroke-dashoffset:0;stroke-opacity:1"
         id="rect1710"
         width="19.930384"
         height="14.220797"
         x="9.5423498"
         y="214.13875"
         rx="4.2141562"
         ry="3.1315372" />
      <path
         sodipodi:nodetypes="ccccccccc"
         inkscape:connector-curvature="0"
         id="rect1742"
         d="m 17.524329,226.46976 c 0.688936,0.38013 3.3139,-7.83682 3.167571,-12.15963 l 0.396043,0.007 0.393144,-0.0226 0.08329,0.0177 -2.643048,12.4543 -0.08329,-0.0177 c -0.437903,-0.0929 -0.875807,-0.18586 -1.31371,-0.27879 z"
         style="opacity:1;fill:#bdcdd4;fill-opacity:1;stroke:none;stroke-width:0.12244357;stroke-miterlimit:4;stroke-dasharray:none;stroke-dashoffset:0;stroke-opacity:1" />
      <path
         sodipodi:nodetypes="csccccccccccccccccc"
         inkscape:connector-curvature="0"
         id="path1841"
         d="m 9.6915701,220.49518 v 2.65771 c 0,2.2871 0.0081,2.68612 0.05581,2.8634 0.2967109,1.10241 1.5536319,1.95067 3.1760329,2.14354 0.176231,0.0207 1.412422,0.0257 6.625952,0.0227 6.009051,-0.003 6.422081,-0.005 6.620268,-0.0372 0.62983,-0.10184 1.133223,-0.26162 1.593184,-0.50643 0.700475,-0.37282 1.129864,-0.82236 1.399915,-1.46503 0.07684,-0.1827 0.07751,-0.20541 0.0894,-2.9316 l 0.01188,-2.74712 c -2.881305,0 -3.775852,-1.24172 -8.643916,0 0.04342,0.16886 0.0659,0.34989 0.06614,0.53278 4.2e-5,0.7703 -0.385889,1.39478 -0.861962,1.39475 -0.476073,3e-5 -0.862005,-0.62445 -0.861963,-1.39475 2.46e-4,-0.18289 0.02272,-0.36392 0.06615,-0.53278 -1.475316,-0.79538 -3.269702,-0.47401 -5.107699,0 -0.176284,0.59409 -0.708057,0.99984 -1.310514,0.99994 -0.602075,-5.7e-4 -1.133309,-0.40622 -1.309481,-0.99994 z"
         style="opacity:1;fill:#bdcdd4;fill-opacity:1;stroke:none;stroke-width:0;stroke-miterlimit:4;stroke-dasharray:none;stroke-dashoffset:0;stroke-opacity:1" />
      <path
         style="opacity:0.41199999;fill:#ffffff;fill-opacity:1;stroke:none;stroke-width:0;stroke-miterlimit:4;stroke-dasharray:none;stroke-dashoffset:0;stroke-opacity:1"
         d="m 22.249888,220.53508 c 2.77931,-0.88881 3.653031,-0.34673 5.067887,0 h 1.704652 c 0.455003,0.52935 0.512355,3.95707 0.07504,5.97933 -0.688904,1.87402 -4.508343,1.77738 -6.78243,1.50019 l -0.06516,-7.33485 z"
         id="path1716"
         inkscape:connector-curvature="0"
         sodipodi:nodetypes="ccccccc" />
      <g
         transform="translate(32.375272,-70.796529)"
         id="g1787">
        <rect
           style="opacity:1;fill:#e1bf55;fill-opacity:1;stroke:#050505;stroke-width:0.13930333;stroke-miterlimit:4;stroke-dasharray:none;stroke-dashoffset:0;stroke-opacity:1"
           id="rect1745"
           width="4.5172606"
           height="3.8985894"
           x="10.549898"
           y="-284.7818"
           rx="7.7444493e-15"
           ry="0.057332236"
           transform="scale(-1)" />
        <rect
           ry="0.012815441"
           rx="7.7444493e-15"
           y="-280.88321"
           x="10.549898"
           height="0.87144935"
           width="4.5172606"
           id="rect1747"
           style="opacity:1;fill:#daaf2c;fill-opacity:1;stroke:#050505;stroke-width:0.13930333;stroke-miterlimit:4;stroke-dasharray:none;stroke-dashoffset:0;stroke-opacity:1"
           transform="scale(-1)" />
        <g
           id="g1778"
           transform="matrix(0.57894748,0,0,1,-3.8396558,-1.3215242e-8)">
          <path
             id="path1770"
             d="m -12.066975,282.27829 a 0.65506428,0.65506428 0 0 1 -0.655064,0.65506 0.65506428,0.65506428 0 0 1 -0.655065,-0.65506 0.65506428,0.65506428 0 0 1 0.655065,-0.65506 0.65506428,0.65506428 0 0 1 0.655064,0.65506 z"
             style="opacity:1;fill:#bdcdd4;fill-opacity:1;stroke:none;stroke-width:0.26458332;stroke-miterlimit:4;stroke-dasharray:none;stroke-dashoffset:0;stroke-opacity:1"
             inkscape:connector-curvature="0" />
          <path
             id="path1773"
             d="m -12.411745,282.26968 a 0.28443584,0.28443584 0 0 1 -0.284436,0.28444 0.28443584,0.28443584 0 0 1 -0.284436,-0.28444 0.28443584,0.28443584 0 0 1 0.284436,-0.28443 0.28443584,0.28443584 0 0 1 0.284436,0.28443 z"
             style="opacity:1;fill:#2d2d2d;fill-opacity:1;stroke:none;stroke-width:0.26458332;stroke-miterlimit:4;stroke-dasharray:none;stroke-dashoffset:0;stroke-opacity:1"
             inkscape:connector-curvature="0" />
        </g>
      </g>
      <g
         transform="matrix(2.1604945,0,0,0.42722485,55.891111,87.924181)"
         id="g1739">
        <rect
           ry="0.15028314"
           rx="1.0658132e-14"
           y="272.42151"
           x="-19.985209"
           height="10.219246"
           width="6.216783"
           id="rect1720"
           style="opacity:1;fill:#000000;fill-opacity:1;stroke:#050505;stroke-width:0.26458332;stroke-miterlimit:4;stroke-dasharray:none;stroke-dashoffset:0;stroke-opacity:1" />
        <rect
           style="opacity:1;fill:#daaf2c;fill-opacity:1;stroke:#050505;stroke-width:0.26458332;stroke-miterlimit:4;stroke-dasharray:none;stroke-dashoffset:0;stroke-opacity:1"
           id="rect1722"
           width="6.216783"
           height="2.284302"
           x="-19.985209"
           y="282.64078"
           rx="1.0658132e-14"
           ry="0.033592701" />
        <rect
           ry="0.069130242"
           rx="1.0658132e-14"
           y="272.42151"
           x="-15.426234"
           height="12.443436"
           width="1.2433567"
           id="rect1724"
           style="opacity:0.41199999;fill:#ffffff;fill-opacity:1;stroke:none;stroke-width:0.26458332;stroke-miterlimit:4;stroke-dasharray:none;stroke-dashoffset:0;stroke-opacity:1" />
      </g>
      <circle
         r="0.86192673"
         cy="222.83983"
         cx="19.479546"
         id="path1849"
         style="opacity:0.71600001;fill:#ffffff;fill-opacity:1;stroke:none;stroke-width:0.26458332;stroke-miterlimit:4;stroke-dasharray:none;stroke-dashoffset:0;stroke-opacity:1" />
      <circle
         style="opacity:0.71600001;fill:#ffffff;fill-opacity:1;stroke:none;stroke-width:0.26458332;stroke-miterlimit:4;stroke-dasharray:none;stroke-dashoffset:0;stroke-opacity:1"
         id="circle1851"
         cx="14.307985"
         cy="221.59865"
         r="0.86192673" />
      <circle
         r="0.86192673"
         cy="224.83949"
         cx="24.237381"
         id="circle1853"
         style="opacity:0.71600001;fill:#ffffff;fill-opacity:1;stroke:none;stroke-width:0.26458332;stroke-miterlimit:4;stroke-dasharray:none;stroke-dashoffset:0;stroke-opacity:1" />
    </g>
    <g
       id="g2048"
       transform="rotate(31.635724,84.110371,156.03057)">
      <rect
         ry="0.13376786"
         rx="9.631992e-15"
         y="199.03735"
         x="23.441841"
         height="25.57662"
         width="1.5134095"
         id="rect2018"
         style="opacity:1;fill:#dcb88c;fill-opacity:1;stroke:#2d2d2d;stroke-width:0.26458332;stroke-miterlimit:4;stroke-dasharray:none;stroke-dashoffset:0;stroke-opacity:1" />
      <ellipse
         ry="3.7835233"
         rx="2.1187732"
         cy="197.06992"
         cx="24.198547"
         id="path2014"
         style="opacity:1;fill:#ded8b1;fill-opacity:1;stroke:#2d2d2d;stroke-width:0;stroke-miterlimit:4;stroke-dasharray:none;stroke-dashoffset:0;stroke-opacity:1" />
      <ellipse
         style="opacity:1;fill:#ded2b1;fill-opacity:1;stroke:#2d2d2d;stroke-width:0;stroke-miterlimit:4;stroke-dasharray:none;stroke-dashoffset:0;stroke-opacity:1"
         id="ellipse2020"
         cx="24.198547"
         cy="224.91667"
         rx="2.1187732"
         ry="3.7835233" />
      <path
         sodipodi:nodetypes="sssss"
         inkscape:connector-curvature="0"
         id="path2035"
         d="m 26.115965,196.18494 c 0.147589,1.69431 -0.719184,4.22666 -1.35582,3.18356 -0.168641,-0.27631 -0.05326,-2.09963 -0.05326,-3.30197 0,-1.20234 -0.211243,-2.17703 0.112464,-2.17703 0.323707,0 1.192274,1.09764 1.296613,2.29544 z"
         style="opacity:1;fill:#ffffff;fill-opacity:1;stroke:#2d2d2d;stroke-width:0;stroke-miterlimit:4;stroke-dasharray:none;stroke-dashoffset:0;stroke-opacity:1" />
      <path
         style="opacity:0.475;fill:#ffffff;fill-opacity:1;stroke:#2d2d2d;stroke-width:0;stroke-miterlimit:4;stroke-dasharray:none;stroke-dashoffset:0;stroke-opacity:1"
         d="m 22.346676,224.2493 c -0.14759,1.69431 0.71918,4.22666 1.35582,3.18356 0.16864,-0.27631 0.0533,-2.09963 0.0533,-3.30197 0,-1.20234 0.21124,-2.17703 -0.11247,-2.17703 -0.32371,0 -1.19227,1.09764 -1.29661,2.29544 z"
         id="path2038"
         inkscape:connector-curvature="0"
         sodipodi:nodetypes="sssss" />
    </g>
    <g
       id="g2101"
       transform="rotate(-12.492705,-1068.8086,87.813829)">
      <rect
         ry="0.14858854"
         rx="7.586116e-15"
         y="397.556"
         x="-21.141445"
         height="21.349794"
         width="24.19668"
         id="rect1994"
         style="opacity:1;fill:#2a2a2a;fill-opacity:1;stroke:#000000;stroke-width:0.44729695;stroke-miterlimit:4;stroke-dasharray:none;stroke-dashoffset:0;stroke-opacity:1" />
      <g
         id="g2078">
        <circle
           style="opacity:1;fill:#f5a421;fill-opacity:1;stroke:#000000;stroke-width:0.26458332;stroke-miterlimit:4;stroke-dasharray:none;stroke-dashoffset:0;stroke-opacity:1"
           id="path1996"
           cx="-16.190456"
           cy="401.83246"
           r="3.0143516"
           inkscape:transform-center-x="3.8516715"
           inkscape:transform-center-y="-0.16746398" />
        <circle
           inkscape:transform-center-y="-0.16746398"
           inkscape:transform-center-x="3.8516715"
           r="3.0143516"
           cy="401.83246"
           cx="-8.2529583"
           id="circle2004"
           style="opacity:1;fill:#d553b8;fill-opacity:1;stroke:#000000;stroke-width:0.26458332;stroke-miterlimit:4;stroke-dasharray:none;stroke-dashoffset:0;stroke-opacity:1" />
        <circle
           style="opacity:1;fill:#af79a3;fill-opacity:1;stroke:#000000;stroke-width:0.26458332;stroke-miterlimit:4;stroke-dasharray:none;stroke-dashoffset:0;stroke-opacity:1"
           id="circle2006"
           cx="-0.31545755"
           cy="401.83246"
           r="3.0143516"
           inkscape:transform-center-x="3.8516715"
           inkscape:transform-center-y="-0.16746398" />
      </g>
      <g
         transform="translate(1.5875)"
         id="g2083">
        <circle
           inkscape:transform-center-y="-0.16746398"
           inkscape:transform-center-x="3.8516715"
           r="3.0143516"
           cy="409.70328"
           cx="-17.610495"
           id="circle2008"
           style="opacity:1;fill:#fbd49e;fill-opacity:1;stroke:#000000;stroke-width:0.26458332;stroke-miterlimit:4;stroke-dasharray:none;stroke-dashoffset:0;stroke-opacity:1" />
        <circle
           style="opacity:1;fill:#f2976a;fill-opacity:1;stroke:#000000;stroke-width:0.26458332;stroke-miterlimit:4;stroke-dasharray:none;stroke-dashoffset:0;stroke-opacity:1"
           id="circle2010"
           cx="-9.6729927"
           cy="409.70328"
           r="3.0143516"
           inkscape:transform-center-x="3.8516715"
           inkscape:transform-center-y="-0.16746398" />
        <circle
           inkscape:transform-center-y="-0.16746398"
           inkscape:transform-center-x="3.8516715"
           r="3.0143516"
           cy="409.70328"
           cx="-1.7354934"
           id="circle2012"
           style="opacity:1;fill:#ed7336;fill-opacity:1;stroke:#000000;stroke-width:0.26458332;stroke-miterlimit:4;stroke-dasharray:none;stroke-dashoffset:0;stroke-opacity:1" />
      </g>
      <rect
         transform="rotate(-90)"
         style="opacity:1;fill:#dcb88c;fill-opacity:1;stroke:#2d2d2d;stroke-width:0.16195805;stroke-miterlimit:4;stroke-dasharray:none;stroke-dashoffset:0;stroke-opacity:1"
         id="rect2050"
         width="0.92639571"
         height="15.656088"
         x="-417.60977"
         y="-16.394575"
         rx="5.8959829e-15"
         ry="0.081882648" />
      <ellipse
         transform="rotate(-90)"
         style="opacity:1;fill:#ded8b1;fill-opacity:1;stroke:#2d2d2d;stroke-width:0;stroke-miterlimit:4;stroke-dasharray:none;stroke-dashoffset:0;stroke-opacity:1"
         id="ellipse2052"
         cx="-417.14658"
         cy="-17.598894"
         rx="1.296954"
         ry="2.315989" />
      <ellipse
         transform="rotate(-90)"
         ry="2.315989"
         rx="1.296954"
         cy="-0.55319905"
         cx="-417.14658"
         id="ellipse2054"
         style="opacity:1;fill:#ded2b1;fill-opacity:1;stroke:#2d2d2d;stroke-width:0;stroke-miterlimit:4;stroke-dasharray:none;stroke-dashoffset:0;stroke-opacity:1" />
      <path
         style="opacity:1;fill:#fbd49e;fill-opacity:1;stroke:#2d2d2d;stroke-width:0;stroke-miterlimit:4;stroke-dasharray:none;stroke-dashoffset:0;stroke-opacity:1"
         d="m -18.140609,415.97288 c 1.037129,-0.0904 2.587244,0.44023 1.948736,0.82993 -0.169136,0.10323 -1.285236,0.0326 -2.021218,0.0326 -0.735983,0 -1.332615,0.12931 -1.332615,-0.0688 0,-0.19815 0.671893,-0.72982 1.405097,-0.79369 z"
         id="path2056"
         inkscape:connector-curvature="0"
         sodipodi:nodetypes="sssss" />
      <path
         sodipodi:nodetypes="sssss"
         inkscape:connector-curvature="0"
         id="path2058"
         d="m -0.96171396,418.28015 c 1.03712945,0.0904 2.58724416,-0.44023 1.94873656,-0.82993 -0.16913625,-0.10323 -1.28523595,-0.0326 -2.0212183,-0.0326 -0.7359823,0 -1.3326144,-0.1293 -1.3326144,0.0688 0,0.19815 0.6718928,0.72982 1.40509614,0.79369 z"
         style="opacity:0.475;fill:#ed7336;fill-opacity:1;stroke:#2d2d2d;stroke-width:0;stroke-miterlimit:4;stroke-dasharray:none;stroke-dashoffset:0;stroke-opacity:1" />
      <path
         inkscape:connector-curvature="0"
         id="rect2067"
         d="m -21.141333,397.55613 v 0.14831 21.05246 0.14883 H 3.0551229 v -0.06 H -20.086101 v -0.14469 -20.47472 -0.14418 H 3.0551229 v -0.37775 -0.14831 z"
         style="opacity:1;fill:#ffffff;fill-opacity:1;stroke:#000000;stroke-width:0.44729695;stroke-miterlimit:4;stroke-dasharray:none;stroke-dashoffset:0;stroke-opacity:1" />
      <rect
         style="opacity:0.31700003;fill:#d3dcfb;fill-opacity:1;stroke:#000000;stroke-width:0.32368258;stroke-miterlimit:4;stroke-dasharray:none;stroke-dashoffset:0;stroke-opacity:1"
         id="rect2073"
         width="12.597816"
         height="21.473408"
         x="-21.203253"
         y="397.4942"
         rx="3.9496528e-15"
         ry="0.14944886" />
    </g>
    <g
       id="g2878"
       transform="translate(-11.832982,-37.223211)">
      <g
         transform="matrix(0.17428363,0,0,0.17428363,-11.775053,221.82322)"
         id="g2856">
        <path
           sodipodi:nodetypes="ccccccccc"
           inkscape:connector-curvature="0"
           id="path2784"
           d="m 112.63632,244.57268 h 13.97973 v 0.0344 l -3.1602,18.97568 v 0.0344 h -8.11079 v -0.0344 l -2.70874,-18.97568 z"
           style="opacity:1;fill:#000000;fill-opacity:1;stroke:none;stroke-width:0;stroke-miterlimit:4;stroke-dasharray:none;stroke-dashoffset:0;stroke-opacity:1" />
        <g
           id="g2811"
           transform="translate(45.560134,-1.283384)">
          <path
             style="opacity:1;fill:#000000;fill-opacity:1;stroke:none;stroke-width:0;stroke-miterlimit:4;stroke-dasharray:none;stroke-dashoffset:0;stroke-opacity:1"
             d="m 81.856999,346.97098 a 9.144111,6.2163914 0 0 1 -8.191749,3.4711 9.144111,6.2163914 0 0 1 -8.192265,-3.4618 l 3.173968,81.60432 v 0.14831 h 9.506913 v -0.14831 z"
             id="path2805"
             inkscape:connector-curvature="0" />
          <path
             style="opacity:1;fill:#ebc595;fill-opacity:1;stroke:none;stroke-width:0;stroke-miterlimit:4;stroke-dasharray:none;stroke-dashoffset:0;stroke-opacity:1"
             d="m 73.664989,351.59622 a 9.144111,6.2163914 0 0 0 9.144147,-6.21668 9.144111,6.2163914 0 0 0 -0.95188,-2.75435 l -3.17397,-81.60433 v -0.14831 h -9.506907 v 0.14831 l -3.70314,81.61415 a 9.144111,6.2163914 0 0 0 -0.95239,2.74453 9.144111,6.2163914 0 0 0 9.14414,6.21668 z"
             id="path2807"
             inkscape:connector-curvature="0" />
          <path
             style="opacity:1;fill:#d6a260;fill-opacity:1;stroke:none;stroke-width:0;stroke-miterlimit:4;stroke-dasharray:none;stroke-dashoffset:0;stroke-opacity:1"
             d="m 77.944621,263.59471 v 0.14802 l 1.499644,78.88243 c -8.627848,9.63505 -3.450067,-52.44023 -3.599146,-78.42869 0.0013,-0.0729 0.257726,-0.60176 2.099502,-0.60176 z"
             id="path2809"
             inkscape:connector-curvature="0"
             sodipodi:nodetypes="ccccc" />
        </g>
      </g>
      <g
         transform="matrix(0.17428363,0,0,0.17428363,-11.775053,221.82322)"
         id="g2849">
        <path
           style="opacity:1;fill:#000000;fill-opacity:1;stroke:none;stroke-width:0;stroke-miterlimit:4;stroke-dasharray:none;stroke-dashoffset:0;stroke-opacity:1"
           d="m 154.3463,245.85606 c 8.45512,1.13434 2.27391,4.06547 9.16704,5.16794 l 1.65249,13.84214 v 0.0344 h -8.11079 v -0.0344 l -2.70874,-18.97568 z"
           id="path2815"
           inkscape:connector-curvature="0"
           sodipodi:nodetypes="cccccccc" />
        <g
           transform="translate(87.270115)"
           id="g2823">
          <path
             inkscape:connector-curvature="0"
             id="path2817"
             d="m 81.856999,346.97098 a 9.144111,6.2163914 0 0 1 -8.191749,3.4711 9.144111,6.2163914 0 0 1 -8.192265,-3.4618 l 3.173968,81.60432 v 0.14831 h 9.506913 v -0.14831 z"
             style="opacity:1;fill:#000000;fill-opacity:1;stroke:none;stroke-width:0;stroke-miterlimit:4;stroke-dasharray:none;stroke-dashoffset:0;stroke-opacity:1" />
          <path
             inkscape:connector-curvature="0"
             id="path2819"
             d="m 73.664989,351.59622 a 9.144111,6.2163914 0 0 0 9.144147,-6.21668 9.144111,6.2163914 0 0 0 -0.95188,-2.75435 l -3.17397,-81.60433 v -0.14831 h -9.506907 v 0.14831 l -3.70314,81.61415 a 9.144111,6.2163914 0 0 0 -0.95239,2.74453 9.144111,6.2163914 0 0 0 9.14414,6.21668 z"
             style="opacity:1;fill:#ebc595;fill-opacity:1;stroke:none;stroke-width:0;stroke-miterlimit:4;stroke-dasharray:none;stroke-dashoffset:0;stroke-opacity:1" />
          <path
             sodipodi:nodetypes="ccccc"
             inkscape:connector-curvature="0"
             id="path2821"
             d="m 77.944621,263.59471 v 0.14802 l 1.499644,78.88243 c -8.627848,9.63505 -3.450067,-52.44023 -3.599146,-78.42869 0.0013,-0.0729 0.257726,-0.60176 2.099502,-0.60176 z"
             style="opacity:1;fill:#d6a260;fill-opacity:1;stroke:none;stroke-width:0;stroke-miterlimit:4;stroke-dasharray:none;stroke-dashoffset:0;stroke-opacity:1" />
        </g>
      </g>
      <g
         transform="matrix(0.17428363,0,0,0.17428363,-11.775053,221.82322)"
         id="g2842">
        <ellipse
           style="opacity:1;fill:#000000;fill-opacity:1;stroke:none;stroke-width:0;stroke-miterlimit:4;stroke-dasharray:none;stroke-dashoffset:0;stroke-opacity:1"
           id="path2835"
           cx="200.92982"
           cy="252.73813"
           rx="6.3367085"
           ry="12.848709" />
        <g
           id="g2833"
           transform="translate(127.05502)">
          <path
             style="opacity:1;fill:#000000;fill-opacity:1;stroke:none;stroke-width:0;stroke-miterlimit:4;stroke-dasharray:none;stroke-dashoffset:0;stroke-opacity:1"
             d="m 81.856999,346.97098 a 9.144111,6.2163914 0 0 1 -8.191749,3.4711 9.144111,6.2163914 0 0 1 -8.192265,-3.4618 l 3.173968,81.60432 v 0.14831 h 9.506913 v -0.14831 z"
             id="path2827"
             inkscape:connector-curvature="0" />
          <path
             style="opacity:1;fill:#ebc595;fill-opacity:1;stroke:none;stroke-width:0;stroke-miterlimit:4;stroke-dasharray:none;stroke-dashoffset:0;stroke-opacity:1"
             d="m 73.664989,351.59622 a 9.144111,6.2163914 0 0 0 9.144147,-6.21668 9.144111,6.2163914 0 0 0 -0.95188,-2.75435 l -3.17397,-81.60433 v -0.14831 h -9.506907 v 0.14831 l -3.70314,81.61415 a 9.144111,6.2163914 0 0 0 -0.95239,2.74453 9.144111,6.2163914 0 0 0 9.14414,6.21668 z"
             id="path2829"
             inkscape:connector-curvature="0" />
          <path
             style="opacity:1;fill:#d6a260;fill-opacity:1;stroke:none;stroke-width:0;stroke-miterlimit:4;stroke-dasharray:none;stroke-dashoffset:0;stroke-opacity:1"
             d="m 77.944621,263.59471 v 0.14802 l 1.499644,78.88243 c -8.627848,9.63505 -3.450067,-52.44023 -3.599146,-78.42869 0.0013,-0.0729 0.257726,-0.60176 2.099502,-0.60176 z"
             id="path2831"
             inkscape:connector-curvature="0"
             sodipodi:nodetypes="ccccc" />
        </g>
      </g>
    </g>
    <g
       id="g3324"
       transform="matrix(0.23339188,-0.12458874,0.12458874,0.23339188,-87.912971,180.04943)">
      <rect
         ry="0.92931557"
         y="308.797"
         x="87.582558"
         height="17.14072"
         width="8.6148434"
         id="rect3302"
         style="opacity:1;fill:#000000;fill-opacity:1;stroke:#000000;stroke-width:0.17561394;stroke-miterlimit:4;stroke-dasharray:none;stroke-dashoffset:0;stroke-opacity:1" />
      <circle
         style="opacity:1;fill:#2d2d2d;fill-opacity:1;stroke:#000000;stroke-width:2.41831279;stroke-miterlimit:4;stroke-dasharray:none;stroke-dashoffset:0;stroke-opacity:1"
         id="circle3249"
         cx="93.168739"
         cy="287.74786"
         r="27.551416"
         inkscape:transform-center-x="8.4370104"
         inkscape:transform-center-y="-0.36682757" />
      <circle
         inkscape:transform-center-y="-0.36682757"
         inkscape:transform-center-x="8.4370104"
         r="27.551416"
         cy="349.32361"
         cx="91.889977"
         id="circle3306"
         style="opacity:1;fill:#2d2d2d;fill-opacity:1;stroke:#000000;stroke-width:2.41831279;stroke-miterlimit:4;stroke-dasharray:none;stroke-dashoffset:0;stroke-opacity:1" />
      <circle
         inkscape:transform-center-y="-0.33964293"
         inkscape:transform-center-x="7.8117382"
         r="25.50956"
         cy="349.32361"
         cx="91.889977"
         id="circle3304"
         style="opacity:1;fill:#f2976a;fill-opacity:1;stroke:#000000;stroke-width:2.23908973;stroke-miterlimit:4;stroke-dasharray:none;stroke-dashoffset:0;stroke-opacity:1" />
      <circle
         style="opacity:1;fill:#dceeee;fill-opacity:1;stroke:#000000;stroke-width:2.23908973;stroke-miterlimit:4;stroke-dasharray:none;stroke-dashoffset:0;stroke-opacity:1"
         id="circle3308"
         cx="93.168739"
         cy="287.74786"
         r="25.50956"
         inkscape:transform-center-x="7.8117382"
         inkscape:transform-center-y="-0.33964293" />
      <path
         inkscape:connector-curvature="0"
         id="circle3312"
         d="m 93.838833,263.17043 a 25.50956,24.297994 0 0 0 -3.20239,0.22249 c 10.761057,1.64332 9.801987,12.22798 9.801987,24.55394 0,12.31104 0.95645,22.07948 -9.763231,23.60937 a 25.50956,24.297994 0 0 0 3.163634,0.21018 25.50956,24.297994 0 0 0 25.509557,-24.29798 25.50956,24.297994 0 0 0 -25.509557,-24.298 z"
         style="opacity:0.42900002;fill:#ffffff;fill-opacity:1;stroke:none;stroke-width:2.18527055;stroke-miterlimit:4;stroke-dasharray:none;stroke-dashoffset:0;stroke-opacity:1" />
    </g>
    <g
       id="g3451"
       transform="translate(-32.423304,34.420732)">
      <path
         inkscape:connector-curvature="0"
         style="fill:#0e232e;fill-opacity:1;stroke:#000000;stroke-width:0.22333741;stroke-linecap:butt;stroke-linejoin:miter;stroke-miterlimit:4;stroke-dasharray:none;stroke-opacity:1"
         d="m 62.637021,204.02708 c -3.900201,0.008 -6.529131,3.77206 -6.146825,5.98716 0.843934,4.88978 6.480411,7.61992 11.109507,10.26623 4.629096,-2.64631 10.265573,-5.37645 11.109516,-10.26623 0.529277,-3.06663 -4.712856,-9.10143 -11.109516,-4.02945 -1.77618,-1.40836 -3.463378,-1.9608 -4.962682,-1.95771 z"
         id="path3427" />
      <path
         id="path4651"
         d="m 63.496603,205.43612 c -3.224672,0.006 -5.398266,3.11872 -5.082176,4.95017 0.697764,4.04285 5.357983,6.30011 9.185304,8.48808 3.827319,-2.18797 8.487537,-4.44523 9.185302,-8.48808 0.437604,-2.53548 -3.89657,-7.52504 -9.185302,-3.33154 -1.468544,-1.16443 -2.863512,-1.62118 -4.103128,-1.61863 z"
         style="fill:#d553b8;fill-opacity:1;stroke:#000000;stroke-width:0.18465456;stroke-linecap:butt;stroke-linejoin:miter;stroke-miterlimit:4;stroke-dasharray:none;stroke-opacity:1"
         inkscape:connector-curvature="0" />
      <path
         inkscape:connector-curvature="0"
         style="opacity:0.53500001;fill:#60636d;fill-opacity:1;stroke:#000000;stroke-width:0.18465456;stroke-linecap:butt;stroke-linejoin:miter;stroke-miterlimit:4;stroke-dasharray:none;stroke-opacity:1"
         d="m 63.091727,206.05933 c -2.761195,-1.66563 -3.021772,-5.45312 -1.807775,-6.86035 2.679856,-3.10643 7.837093,-2.64187 12.244645,-2.54676 2.154342,3.84635 4.986997,8.18097 3.50345,12.00597 -0.930413,2.39885 -7.215032,4.44441 -9.589491,-1.87367 -1.858478,0.24204 -3.289488,-0.0847 -4.350829,-0.72519 z"
         id="path3431" />
      <ellipse
         ry="0.77056134"
         rx="1.2467943"
         cy="207.03024"
         cx="67.440086"
         id="path3435"
         style="opacity:1;fill:#050505;fill-opacity:1;stroke:none;stroke-width:0.69081825;stroke-miterlimit:4;stroke-dasharray:none;stroke-dashoffset:0;stroke-opacity:1" />
    </g>
    <g
       id="g3571"
       transform="translate(20.019425,-69.332788)">
      <rect
         style="opacity:1;fill:#d99c8d;fill-opacity:1;stroke:#2d2d2d;stroke-width:0.3291243;stroke-miterlimit:4;stroke-dasharray:none;stroke-dashoffset:0;stroke-opacity:1"
         id="rect3525"
         width="13.381117"
         height="22.621922"
         x="8.4665518"
         y="266.73276"
         rx="6.6905584"
         ry="7.4674354" />
      <rect
         style="opacity:1;fill:#ffffff;fill-opacity:1;stroke:#2d2d2d;stroke-width:0.41696167;stroke-miterlimit:4;stroke-dasharray:none;stroke-dashoffset:0;stroke-opacity:1"
         id="rect3527"
         width="11.077733"
         height="18.832146"
         x="9.6182423"
         y="265.17935"
         rx="3.4617915"
         ry="9.4160728" />
      <path
         style="opacity:1;fill:#dc0000;fill-opacity:1;stroke:#2d2d2d;stroke-width:0.49495444;stroke-miterlimit:4;stroke-dasharray:none;stroke-dashoffset:0;stroke-opacity:1"
         d="m 15.294616,268.66134 c -2.306592,0 -4.329298,2.51337 -5.5127583,6.33974 0.3991003,5.66327 1.7270423,9.80281 3.3134193,9.80281 h 4.124061 c 1.65108,0 3.022056,-4.48367 3.35735,-10.5029 -1.205879,-3.42979 -3.119295,-5.63965 -5.282072,-5.63965 z"
         id="path3529"
         inkscape:connector-curvature="0" />
      <path
         inkscape:connector-curvature="0"
         id="path3554"
         d="m 14.560064,274.33023 a 1.2481665,3.4887827 0 0 1 -1.248167,3.48879 1.2481665,3.4887827 0 0 1 -1.248166,-3.48879 1.2481665,3.4887827 0 0 1 1.248166,-3.48878 1.2481665,3.4887827 0 0 1 1.248167,3.48878 z"
         style="opacity:0.631;fill:#ffffff;fill-opacity:1;stroke:#ffffff;stroke-width:0.6698339;stroke-miterlimit:4;stroke-dasharray:none;stroke-dashoffset:0;stroke-opacity:1" />
    </g>
  </g>
</svg>
